G04 MADE WITH FRITZING*
G04 WWW.FRITZING.ORG*
G04 DOUBLE SIDED*
G04 HOLES PLATED*
G04 CONTOUR ON CENTER OF CONTOUR VECTOR*
%ASAXBY*%
%FSLAX23Y23*%
%MOIN*%
%OFA0B0*%
%SFA1.0B1.0*%
%ADD10C,0.075000*%
%ADD11C,0.039370*%
%ADD12C,0.059000*%
%ADD13R,0.059000X0.059000*%
%ADD14C,0.024000*%
%LNCOPPER1*%
G90*
G70*
G54D10*
X124Y442D03*
X105Y137D03*
G54D11*
X583Y326D03*
X483Y326D03*
X383Y326D03*
X283Y326D03*
X583Y226D03*
X483Y226D03*
X383Y226D03*
X283Y226D03*
G54D12*
X238Y74D03*
X338Y74D03*
X438Y74D03*
X538Y74D03*
X638Y74D03*
G54D13*
X238Y74D03*
G54D14*
X502Y326D02*
X564Y326D01*
D02*
X402Y326D02*
X464Y326D01*
D02*
X302Y326D02*
X364Y326D01*
D02*
X236Y278D02*
X270Y312D01*
D02*
X238Y104D02*
X236Y278D01*
D02*
X328Y102D02*
X290Y208D01*
D02*
X428Y102D02*
X390Y208D01*
D02*
X528Y102D02*
X490Y208D01*
D02*
X628Y102D02*
X590Y208D01*
G36*
X44Y507D02*
X44Y377D01*
X598Y377D01*
X598Y375D01*
X604Y375D01*
X604Y373D01*
X608Y373D01*
X608Y371D01*
X610Y371D01*
X610Y369D01*
X614Y369D01*
X614Y367D01*
X616Y367D01*
X616Y365D01*
X618Y365D01*
X618Y363D01*
X620Y363D01*
X620Y361D01*
X622Y361D01*
X622Y359D01*
X624Y359D01*
X624Y357D01*
X626Y357D01*
X626Y355D01*
X628Y355D01*
X628Y351D01*
X630Y351D01*
X630Y349D01*
X764Y349D01*
X764Y347D01*
X772Y347D01*
X772Y345D01*
X778Y345D01*
X778Y343D01*
X782Y343D01*
X782Y341D01*
X786Y341D01*
X786Y339D01*
X788Y339D01*
X788Y337D01*
X792Y337D01*
X792Y335D01*
X794Y335D01*
X794Y333D01*
X796Y333D01*
X796Y331D01*
X798Y331D01*
X798Y329D01*
X800Y329D01*
X800Y327D01*
X802Y327D01*
X802Y325D01*
X804Y325D01*
X804Y323D01*
X806Y323D01*
X806Y321D01*
X826Y321D01*
X826Y507D01*
X44Y507D01*
G37*
D02*
G36*
X44Y377D02*
X44Y349D01*
X134Y349D01*
X134Y347D01*
X142Y347D01*
X142Y345D01*
X148Y345D01*
X148Y343D01*
X152Y343D01*
X152Y341D01*
X156Y341D01*
X156Y339D01*
X158Y339D01*
X158Y337D01*
X162Y337D01*
X162Y335D01*
X164Y335D01*
X164Y333D01*
X166Y333D01*
X166Y331D01*
X168Y331D01*
X168Y329D01*
X170Y329D01*
X170Y327D01*
X172Y327D01*
X172Y325D01*
X174Y325D01*
X174Y323D01*
X176Y323D01*
X176Y321D01*
X178Y321D01*
X178Y319D01*
X180Y319D01*
X180Y315D01*
X182Y315D01*
X182Y313D01*
X184Y313D01*
X184Y311D01*
X204Y311D01*
X204Y313D01*
X206Y313D01*
X206Y315D01*
X208Y315D01*
X208Y317D01*
X210Y317D01*
X210Y319D01*
X212Y319D01*
X212Y321D01*
X214Y321D01*
X214Y323D01*
X216Y323D01*
X216Y325D01*
X218Y325D01*
X218Y327D01*
X220Y327D01*
X220Y329D01*
X222Y329D01*
X222Y331D01*
X224Y331D01*
X224Y333D01*
X226Y333D01*
X226Y335D01*
X228Y335D01*
X228Y337D01*
X230Y337D01*
X230Y339D01*
X232Y339D01*
X232Y341D01*
X234Y341D01*
X234Y347D01*
X236Y347D01*
X236Y351D01*
X238Y351D01*
X238Y353D01*
X240Y353D01*
X240Y357D01*
X242Y357D01*
X242Y359D01*
X244Y359D01*
X244Y361D01*
X246Y361D01*
X246Y363D01*
X248Y363D01*
X248Y365D01*
X250Y365D01*
X250Y367D01*
X252Y367D01*
X252Y369D01*
X256Y369D01*
X256Y371D01*
X258Y371D01*
X258Y373D01*
X262Y373D01*
X262Y375D01*
X268Y375D01*
X268Y377D01*
X44Y377D01*
G37*
D02*
G36*
X298Y377D02*
X298Y375D01*
X304Y375D01*
X304Y373D01*
X308Y373D01*
X308Y371D01*
X310Y371D01*
X310Y369D01*
X356Y369D01*
X356Y371D01*
X358Y371D01*
X358Y373D01*
X362Y373D01*
X362Y375D01*
X368Y375D01*
X368Y377D01*
X298Y377D01*
G37*
D02*
G36*
X398Y377D02*
X398Y375D01*
X404Y375D01*
X404Y373D01*
X408Y373D01*
X408Y371D01*
X410Y371D01*
X410Y369D01*
X456Y369D01*
X456Y371D01*
X458Y371D01*
X458Y373D01*
X462Y373D01*
X462Y375D01*
X468Y375D01*
X468Y377D01*
X398Y377D01*
G37*
D02*
G36*
X498Y377D02*
X498Y375D01*
X504Y375D01*
X504Y373D01*
X508Y373D01*
X508Y371D01*
X510Y371D01*
X510Y369D01*
X556Y369D01*
X556Y371D01*
X558Y371D01*
X558Y373D01*
X562Y373D01*
X562Y375D01*
X568Y375D01*
X568Y377D01*
X498Y377D01*
G37*
D02*
G36*
X44Y349D02*
X44Y325D01*
X64Y325D01*
X64Y327D01*
X66Y327D01*
X66Y329D01*
X68Y329D01*
X68Y331D01*
X70Y331D01*
X70Y333D01*
X72Y333D01*
X72Y335D01*
X74Y335D01*
X74Y337D01*
X78Y337D01*
X78Y339D01*
X80Y339D01*
X80Y341D01*
X84Y341D01*
X84Y343D01*
X88Y343D01*
X88Y345D01*
X94Y345D01*
X94Y347D01*
X102Y347D01*
X102Y349D01*
X44Y349D01*
G37*
D02*
G36*
X630Y349D02*
X630Y347D01*
X632Y347D01*
X632Y343D01*
X634Y343D01*
X634Y309D01*
X632Y309D01*
X632Y303D01*
X630Y303D01*
X630Y299D01*
X628Y299D01*
X628Y297D01*
X626Y297D01*
X626Y295D01*
X624Y295D01*
X624Y291D01*
X622Y291D01*
X622Y289D01*
X620Y289D01*
X620Y287D01*
X618Y287D01*
X618Y285D01*
X616Y285D01*
X616Y265D01*
X618Y265D01*
X618Y263D01*
X620Y263D01*
X620Y261D01*
X622Y261D01*
X622Y259D01*
X624Y259D01*
X624Y257D01*
X626Y257D01*
X626Y255D01*
X628Y255D01*
X628Y251D01*
X630Y251D01*
X630Y247D01*
X632Y247D01*
X632Y243D01*
X634Y243D01*
X634Y217D01*
X636Y217D01*
X636Y211D01*
X638Y211D01*
X638Y207D01*
X640Y207D01*
X640Y203D01*
X728Y203D01*
X728Y205D01*
X720Y205D01*
X720Y207D01*
X716Y207D01*
X716Y209D01*
X712Y209D01*
X712Y211D01*
X708Y211D01*
X708Y213D01*
X706Y213D01*
X706Y215D01*
X704Y215D01*
X704Y217D01*
X700Y217D01*
X700Y219D01*
X698Y219D01*
X698Y221D01*
X696Y221D01*
X696Y223D01*
X694Y223D01*
X694Y225D01*
X692Y225D01*
X692Y227D01*
X690Y227D01*
X690Y231D01*
X688Y231D01*
X688Y233D01*
X686Y233D01*
X686Y235D01*
X684Y235D01*
X684Y239D01*
X682Y239D01*
X682Y243D01*
X680Y243D01*
X680Y247D01*
X678Y247D01*
X678Y253D01*
X676Y253D01*
X676Y263D01*
X674Y263D01*
X674Y289D01*
X676Y289D01*
X676Y297D01*
X678Y297D01*
X678Y303D01*
X680Y303D01*
X680Y309D01*
X682Y309D01*
X682Y311D01*
X684Y311D01*
X684Y315D01*
X686Y315D01*
X686Y319D01*
X688Y319D01*
X688Y321D01*
X690Y321D01*
X690Y323D01*
X692Y323D01*
X692Y325D01*
X694Y325D01*
X694Y327D01*
X696Y327D01*
X696Y329D01*
X698Y329D01*
X698Y331D01*
X700Y331D01*
X700Y333D01*
X702Y333D01*
X702Y335D01*
X704Y335D01*
X704Y337D01*
X708Y337D01*
X708Y339D01*
X710Y339D01*
X710Y341D01*
X714Y341D01*
X714Y343D01*
X718Y343D01*
X718Y345D01*
X724Y345D01*
X724Y347D01*
X732Y347D01*
X732Y349D01*
X630Y349D01*
G37*
D02*
G36*
X806Y231D02*
X806Y227D01*
X804Y227D01*
X804Y225D01*
X802Y225D01*
X802Y223D01*
X800Y223D01*
X800Y221D01*
X798Y221D01*
X798Y219D01*
X796Y219D01*
X796Y217D01*
X792Y217D01*
X792Y215D01*
X790Y215D01*
X790Y213D01*
X788Y213D01*
X788Y211D01*
X784Y211D01*
X784Y209D01*
X780Y209D01*
X780Y207D01*
X776Y207D01*
X776Y205D01*
X768Y205D01*
X768Y203D01*
X826Y203D01*
X826Y231D01*
X806Y231D01*
G37*
D02*
G36*
X640Y203D02*
X640Y201D01*
X826Y201D01*
X826Y203D01*
X640Y203D01*
G37*
D02*
G36*
X640Y203D02*
X640Y201D01*
X826Y201D01*
X826Y203D01*
X640Y203D01*
G37*
D02*
G36*
X642Y201D02*
X642Y195D01*
X644Y195D01*
X644Y189D01*
X646Y189D01*
X646Y185D01*
X648Y185D01*
X648Y179D01*
X650Y179D01*
X650Y173D01*
X652Y173D01*
X652Y167D01*
X654Y167D01*
X654Y163D01*
X656Y163D01*
X656Y157D01*
X658Y157D01*
X658Y151D01*
X660Y151D01*
X660Y145D01*
X662Y145D01*
X662Y141D01*
X664Y141D01*
X664Y135D01*
X666Y135D01*
X666Y129D01*
X670Y129D01*
X670Y127D01*
X672Y127D01*
X672Y125D01*
X676Y125D01*
X676Y123D01*
X678Y123D01*
X678Y121D01*
X680Y121D01*
X680Y119D01*
X682Y119D01*
X682Y117D01*
X684Y117D01*
X684Y115D01*
X686Y115D01*
X686Y113D01*
X688Y113D01*
X688Y111D01*
X690Y111D01*
X690Y107D01*
X692Y107D01*
X692Y105D01*
X694Y105D01*
X694Y101D01*
X696Y101D01*
X696Y95D01*
X698Y95D01*
X698Y89D01*
X700Y89D01*
X700Y61D01*
X698Y61D01*
X698Y41D01*
X826Y41D01*
X826Y201D01*
X642Y201D01*
G37*
D02*
G36*
X44Y225D02*
X44Y203D01*
X98Y203D01*
X98Y205D01*
X92Y205D01*
X92Y207D01*
X86Y207D01*
X86Y209D01*
X82Y209D01*
X82Y211D01*
X80Y211D01*
X80Y213D01*
X76Y213D01*
X76Y215D01*
X74Y215D01*
X74Y217D01*
X70Y217D01*
X70Y219D01*
X68Y219D01*
X68Y221D01*
X66Y221D01*
X66Y223D01*
X64Y223D01*
X64Y225D01*
X44Y225D01*
G37*
D02*
G36*
X172Y225D02*
X172Y223D01*
X170Y223D01*
X170Y221D01*
X168Y221D01*
X168Y219D01*
X166Y219D01*
X166Y217D01*
X162Y217D01*
X162Y215D01*
X160Y215D01*
X160Y213D01*
X158Y213D01*
X158Y211D01*
X154Y211D01*
X154Y209D01*
X150Y209D01*
X150Y207D01*
X146Y207D01*
X146Y205D01*
X138Y205D01*
X138Y203D01*
X192Y203D01*
X192Y225D01*
X172Y225D01*
G37*
D02*
G36*
X44Y203D02*
X44Y201D01*
X192Y201D01*
X192Y203D01*
X44Y203D01*
G37*
D02*
G36*
X44Y203D02*
X44Y201D01*
X192Y201D01*
X192Y203D01*
X44Y203D01*
G37*
D02*
G36*
X44Y201D02*
X44Y41D01*
X176Y41D01*
X176Y135D01*
X194Y135D01*
X194Y195D01*
X192Y195D01*
X192Y201D01*
X44Y201D01*
G37*
D02*
G04 End of Copper1*
M02*